<?xml version="1.0" encoding="UTF-8"?>
<svg id="Calque_2" data-name="Calque 2" xmlns="http://www.w3.org/2000/svg" viewBox="0 0 348 264">
  <defs>
    <style>
      .cls-1 {
        fill: #dfaf00;
      }
    </style>
  </defs>
  <g id="Calque_1-2" data-name="Calque 1">
    <g>
      <g>
        <path d="M1.47,96h44.52c2.63,0,5.52.11,8.65.32,3.13.21,5.94.48,8.43.79,2.49.32,4.55.69,6.19,1.11,5.87,1.48,10.36,4.13,13.48,7.95,3.11,3.83,4.67,8.57,4.67,14.23,0,3.89-.75,7.35-2.24,10.39s-3.69,5.61-6.59,7.7c-2.9,2.09-6.45,3.69-10.65,4.79-4.2,1.1-8.93,1.65-14.2,1.65h-20.44v21.04c0,10.82,4.52,16.23,13.56,16.23h3.74v2.35H1.36v-2.35h2.62c9.04,0,13.56-5.41,13.56-16.23v-51.53c0-10.73-4.52-16.1-13.56-16.1H1.47v-2.35ZM33.28,98.35v44.12h14.89c7.37,0,12.81-1.81,16.33-5.42s5.28-9.2,5.28-16.77c0-8.83-2.44-14.98-7.31-18.44-1.74-1.23-3.79-2.11-6.14-2.66-2.35-.55-5.27-.82-8.75-.82h-14.3Z"/>
        <path d="M109.8,148.42h.79l12,30.98c.38.96.81,1.76,1.29,2.38s1.01,1.08,1.61,1.36,1.3.42,2.11.42h.79v.99h-17.32v-.99h2.26c1.12,0,1.95-.18,2.47-.55s.78-.93.78-1.69c0-.47-.1-1.05-.31-1.72s-.66-1.9-1.36-3.68c-.04-.1-.11-.27-.19-.51s-.18-.46-.28-.68l-.49-1.29h-12.64l-.96,2.64c-.31.9-.47,1.8-.47,2.71,0,.78.18,1.55.54,2.31s.84,1.34,1.42,1.72c.38.27.73.45,1.04.55s.74.16,1.31.19v.99h-12.15v-.99c.88-.12,1.58-.3,2.1-.56s1.1-.68,1.74-1.27c1.51-1.39,2.98-4,4.42-7.83l9.48-25.48ZM107.54,156.71l-5.85,15.8h11.85l-6-15.8Z"/>
        <path d="M150.97,167.21h-6.7v9.91c0,2.16.45,3.78,1.35,4.84s2.26,1.6,4.08,1.6h.88v.99h-18.83v-.99h.81c1.84,0,3.2-.53,4.09-1.58s1.33-2.67,1.33-4.86v-20.61c0-2.2-.44-3.82-1.32-4.87s-2.25-1.57-4.1-1.57h-.81v-.94h23.12c3.13,0,5.61.27,7.43.81s3.27,1.45,4.33,2.74c.61.73,1.1,1.59,1.46,2.59s.54,1.99.54,2.97c0,2.67-1.17,4.82-3.5,6.44-.87.56-2.05,1.06-3.54,1.5s-2.98.74-4.46.89c-1.12.1-2.84.15-5.15.15v.1c1.14.88,2.17,1.61,3.1,2.18s1.86,1.06,2.8,1.46,2.01.76,3.2,1.08l.7,1.27c.47.81.82,1.42,1.05,1.83s.49.87.79,1.39c.8,1.44,1.56,2.68,2.27,3.74s1.31,1.8,1.78,2.22c.93.73,2.25,1.09,3.97,1.09h.83v.99h-11.19l-10.31-17.34ZM144.26,166.27h8.5c2.01,0,3.65-.29,4.94-.87s2.25-1.47,2.88-2.66.95-2.73.95-4.6c0-5.37-2.88-8.06-8.65-8.06h-8.63v16.2Z"/>
        <path d="M191.79,148.42h.79l12,30.98c.38.96.81,1.76,1.29,2.38s1.01,1.08,1.61,1.36,1.3.42,2.11.42h.79v.99h-17.32v-.99h2.26c1.12,0,1.95-.18,2.47-.55s.78-.93.78-1.69c0-.47-.1-1.05-.31-1.72s-.66-1.9-1.36-3.68c-.04-.1-.11-.27-.19-.51s-.18-.46-.28-.68l-.49-1.29h-12.64l-.96,2.64c-.31.9-.47,1.8-.47,2.71,0,.78.18,1.55.54,2.31s.84,1.34,1.42,1.72c.38.27.73.45,1.04.55s.74.16,1.31.19v.99h-12.15v-.99c.88-.12,1.58-.3,2.1-.56s1.1-.68,1.74-1.27c1.51-1.39,2.98-4,4.42-7.83l9.48-25.48ZM189.52,156.71l-5.85,15.8h11.85l-6-15.8Z"/>
        <path d="M212.84,149.13h19.79c3.22,0,6.02.48,8.42,1.43s4.42,2.42,6.05,4.4c1.48,1.71,2.62,3.63,3.43,5.78s1.21,4.35,1.21,6.62c0,2.48-.43,4.78-1.3,6.9s-2.1,3.94-3.68,5.48-3.47,2.73-5.65,3.56-4.53,1.26-7.07,1.26h-21.2v-.99h1.09c1.84,0,3.2-.53,4.09-1.58s1.33-2.67,1.33-4.86v-20.61c0-2.2-.44-3.82-1.32-4.87s-2.25-1.57-4.1-1.57h-1.09v-.94ZM225.65,150.07v33.49h5.76c1.64,0,3.02-.11,4.16-.33s2.14-.58,2.99-1.08,1.6-1.15,2.24-1.96c2.36-2.86,3.54-7.25,3.54-13.18,0-1.94-.15-3.78-.44-5.51s-.72-3.26-1.27-4.58-1.25-2.48-2.09-3.47c-.7-.81-1.48-1.47-2.36-1.96s-1.89-.86-3.03-1.08-2.52-.33-4.13-.33h-5.38Z"/>
        <path d="M257.18,183.56h.83c1.84,0,3.2-.53,4.09-1.58s1.33-2.67,1.33-4.86c.11-.91.2-1.72.27-2.42s.1-1.5.12-2.41.01-2.04,0-3.41c-.06-5.78-.2-10.13-.43-13.06-.09-1.18-.25-2.1-.48-2.76s-.59-1.21-1.06-1.65c-.85-.9-2.14-1.34-3.84-1.34h-.83v-.94h18.79v.94h-.83c-1.84,0-3.2.52-4.08,1.57s-1.32,2.67-1.32,4.87v20.61c0,2.18.44,3.8,1.33,4.86s2.25,1.58,4.07,1.58h.83v.99h-18.79v-.99Z"/>
        <path d="M307.48,149.81h.75v12.14h-.75c-.9-2.92-1.91-5.21-3.05-6.85-.83-1.15-1.86-2.16-3.11-3.03s-2.64-1.56-4.18-2.05-3.11-.75-4.69-.75c-1.18,0-2.23.19-3.16.58s-1.71.96-2.35,1.72c-.46.54-.82,1.15-1.09,1.83s-.41,1.33-.41,1.95c0,1.18.38,2.21,1.15,3.07.36.42.86.83,1.53,1.22s1.52.77,2.56,1.14,2.51.83,4.39,1.37c.51.19.86.3,1.05.33l1.05.3,1.67.51c2.82.86,4.87,1.62,6.17,2.28s2.4,1.53,3.31,2.61c.71.79,1.26,1.72,1.65,2.79s.59,2.21.59,3.45-.22,2.44-.66,3.66-1.07,2.3-1.88,3.23c-1.05,1.28-2.35,2.25-3.9,2.89s-3.31.96-5.28.96c-1.38,0-2.68-.16-3.9-.49s-2.7-.93-4.45-1.81c-1.14-.54-2.01-.91-2.6-1.1s-1.16-.29-1.69-.29c-1.01,0-1.87.32-2.57.95s-1.17,1.53-1.4,2.7h-.75v-16.38h.75c.3,2.91,1.29,5.54,2.97,7.91,1.01,1.39,2.3,2.67,3.88,3.87s3.22,2.12,4.94,2.78,3.36.99,4.91.99c1.38,0,2.64-.27,3.79-.81s2.04-1.29,2.68-2.26.96-2.05.96-3.27c0-1.28-.43-2.44-1.3-3.47-.4-.46-.91-.88-1.55-1.27s-1.45-.79-2.46-1.19-2.38-.89-4.13-1.45l-2.14-.68c-3.33-1.06-5.64-1.89-6.92-2.48-1.44-.63-2.57-1.25-3.38-1.88s-1.53-1.42-2.12-2.38c-.88-1.35-1.32-2.84-1.32-4.46,0-1.96.49-3.72,1.47-5.29s2.36-2.78,4.12-3.66,3.72-1.32,5.87-1.32c3.25,0,6.61,1.07,10.1,3.22,1.22.73,2.06,1.09,2.5,1.09,1.11,0,1.91-.97,2.39-2.92Z"/>
        <path d="M313.48,149.13h31.73v13.72h-.64c-.58-2.4-1.11-4.2-1.57-5.39s-1.06-2.32-1.8-3.38c-.9-1.27-1.87-2.17-2.92-2.71-1.75-.86-3.88-1.29-6.38-1.29h-5.87v16.83h1.58c2.35,0,4.21-1.2,5.59-3.6.71-1.23,1.24-2.7,1.58-4.41.17-.73.33-1.8.47-3.22h.75v23.22h-.75c-.17-1.25-.37-2.43-.61-3.54s-.5-2.01-.79-2.7-.67-1.39-1.12-2.08c-1.28-1.88-3.1-2.81-5.47-2.81h-1.24v15.85h4.91c1.45,0,2.76-.12,3.92-.37s2.2-.63,3.13-1.14,1.79-1.19,2.6-2.02c1.39-1.4,2.48-3.15,3.25-5.25.44-1.2.9-2.82,1.39-4.87h.79v14.58h-32.47l-.04-.94h.81c3.62,0,5.42-2.16,5.42-6.49v-20.61c0-2.2-.44-3.82-1.32-4.87s-2.25-1.57-4.1-1.57h-.81v-.94Z"/>
      </g>
      <polygon class="cls-1" points="283.3 89.82 233.06 89.86 270.87 122.94 225.59 101.17 245.31 147.38 213.95 108.12 211.67 158.31 200.46 109.33 176.62 153.56 187.77 104.57 147.1 134.08 178.4 94.78 128.96 103.71 174.21 81.89 125.79 68.49 176.03 68.45 138.22 35.37 183.5 57.14 163.78 10.93 195.13 50.19 197.42 0 208.63 48.98 232.47 4.75 221.32 53.74 261.99 24.23 230.69 63.54 280.13 54.6 234.88 76.43 283.3 89.82"/>
      <rect x="0" y="195" width="348" height="2.31" rx="1.15" ry="1.15"/>
      <rect class="cls-1" x="18" y="205" width="308" height="2.31" rx="1.09" ry="1.09"/>
      <rect x="34" y="216" width="267" height="2.31" rx="1.01" ry="1.01" transform="translate(335 434.31) rotate(180)"/>
      <rect class="cls-1" x="51" y="226" width="233" height="2.31" rx=".94" ry=".94" transform="translate(335 454.31) rotate(180)"/>
      <rect x="71" y="238" width="201" height="2.31" rx=".88" ry=".88" transform="translate(343 478.31) rotate(180)"/>
      <rect class="cls-1" x="94" y="249" width="158" height="2" rx=".72" ry=".72" transform="translate(346 500) rotate(-180)"/>
      <rect x="113" y="262" width="122" height="2" rx=".64" ry=".64" transform="translate(348 526) rotate(180)"/>
    </g>
  </g>
</svg>