<?xml version="1.0" encoding="UTF-8"?>
<svg id="Calque_2" xmlns="http://www.w3.org/2000/svg" version="1.1" viewBox="0 0 348 264">
  <!-- Generator: Adobe Illustrator 29.2.1, SVG Export Plug-In . SVG Version: 2.1.0 Build 116)  -->
  <defs>
    <style>
      .st0 {
        fill: #8fe2be;
      }

      .st1 {
        fill: #dfaf00;
      }
    </style>
  </defs>
  <g>
    <path class="st0" d="M.1,90.9h45c2.7,0,5.6,0,8.7.4,3.2.2,6,.5,8.5.9,2.5.4,4.6.8,6.3,1.3,5.9,1.7,10.5,4.7,13.6,9s4.7,9.7,4.7,16.1-.8,8.3-2.3,11.8c-1.5,3.4-3.7,6.4-6.7,8.7s-6.5,4.2-10.8,5.4c-4.2,1.2-9,1.9-14.3,1.9h-20.6v23.9c0,12.3,4.6,18.4,13.7,18.4h3.8v2.7H0v-2.7h2.6c9.1,0,13.7-6.1,13.7-18.4v-58.5c0-12.2-4.6-18.3-13.7-18.3H.1v-2.7H.1ZM32.2,93.6v50.1h15c7.4,0,12.9-2.1,16.5-6.1,3.6-4.1,5.3-10.4,5.3-19s-2.5-17-7.4-20.9c-1.8-1.4-3.8-2.4-6.2-3s-5.3-.9-8.8-.9h-14.4v-.2Z"/>
    <path class="st0" d="M109.5,150.4h.8l12.1,35.1c.4,1.1.8,2,1.3,2.7s1,1.2,1.6,1.5,1.3.5,2.1.5h.8v1.1h-17.5v-1.1h2.3c1.1,0,2-.2,2.5-.6s.8-1.1.8-1.9,0-1.2-.3-2-.7-2.2-1.4-4.2c0-.1,0-.3-.2-.6s-.2-.5-.3-.8l-.5-1.5h-12.8l-1,3c-.3,1-.5,2-.5,3.1s.2,1.8.5,2.6.8,1.5,1.4,2c.4.3.7.5,1.1.6s.7.2,1.3.2v1.1h-12.3v-1.1c.9-.1,1.6-.3,2.1-.6s1.1-.8,1.8-1.4c1.5-1.6,3-4.5,4.5-8.9l9.6-28.9h.2ZM107.2,159.8l-5.9,17.9h12l-6.1-17.9Z"/>
    <path class="st0" d="M151.1,171.7h-6.8v11.2c0,2.5.5,4.3,1.4,5.5s2.3,1.8,4.1,1.8h.9v1.1h-19v-1.1h.8c1.9,0,3.2-.6,4.1-1.8s1.3-3,1.3-5.5v-23.4c0-2.5-.4-4.3-1.3-5.5s-2.3-1.8-4.1-1.8h-.8v-1.1h23.3c3.2,0,5.7.3,7.5.9s3.3,1.6,4.4,3.1c.6.8,1.1,1.8,1.5,2.9s.5,2.3.5,3.4c0,3-1.2,5.5-3.5,7.3-.9.6-2.1,1.2-3.6,1.7s-3,.8-4.5,1c-1.1.1-2.9.2-5.2.2h0c1.2,1.1,2.2,1.9,3.1,2.6s1.9,1.2,2.8,1.7,2,.9,3.2,1.2l.7,1.4c.5.9.8,1.6,1.1,2.1s.5,1,.8,1.6c.8,1.6,1.6,3,2.3,4.2s1.3,2,1.8,2.5c.9.8,2.3,1.2,4,1.2h.8v1.1h-11.3l-10.4-19.7h0v.2ZM144.3,170.6h8.6c2,0,3.7-.3,5-1s2.3-1.7,2.9-3,1-3.1,1-5.2c0-6.1-2.9-9.1-8.7-9.1h-8.7v18.4h-.1Z"/>
    <path class="st0" d="M192.3,150.4h.8l12.1,35.1c.4,1.1.8,2,1.3,2.7s1,1.2,1.6,1.5,1.3.5,2.1.5h.8v1.1h-17.5v-1.1h2.3c1.1,0,2-.2,2.5-.6s.8-1.1.8-1.9-.1-1.2-.3-2-.7-2.2-1.4-4.2c0-.1-.1-.3-.2-.6s-.2-.5-.3-.8l-.5-1.5h-12.8l-1,3c-.3,1-.5,2-.5,3.1s.2,1.8.5,2.6.8,1.5,1.4,2c.4.3.7.5,1.1.6s.7.2,1.3.2v1.1h-12.3v-1.1c.9-.1,1.6-.3,2.1-.6s1.1-.8,1.8-1.4c1.5-1.6,3-4.5,4.5-8.9l9.6-28.9h.2ZM190,159.8l-5.9,17.9h12l-6.1-17.9Z"/>
    <path class="st0" d="M213.5,151.2h20c3.3,0,6.1.5,8.5,1.6s4.5,2.7,6.1,5c1.5,1.9,2.6,4.1,3.5,6.6s1.2,4.9,1.2,7.5-.4,5.4-1.3,7.8-2.1,4.5-3.7,6.2c-1.6,1.7-3.5,3.1-5.7,4s-4.6,1.4-7.1,1.4h-21.4v-1.1h1.1c1.9,0,3.2-.6,4.1-1.8s1.3-3,1.3-5.5v-23.4c0-2.5-.4-4.3-1.3-5.5s-2.3-1.8-4.1-1.8h-1.1v-1.1h-.1ZM226.5,152.3v38h5.8c1.7,0,3-.1,4.2-.4s2.2-.7,3-1.2,1.6-1.3,2.3-2.2c2.4-3.2,3.6-8.2,3.6-15s-.2-4.3-.4-6.3-.7-3.7-1.3-5.2-1.3-2.8-2.1-3.9c-.7-.9-1.5-1.7-2.4-2.2s-1.9-1-3.1-1.2-2.5-.4-4.2-.4h-5.4Z"/>
    <path class="st0" d="M258.3,190.3h.8c1.9,0,3.2-.6,4.1-1.8s1.3-3,1.3-5.5c.1-1,.2-2,.3-2.7s.1-1.7.1-2.7v-3.9c0-6.6-.2-11.5-.4-14.8,0-1.3-.3-2.4-.5-3.1s-.6-1.4-1.1-1.9c-.9-1-2.2-1.5-3.9-1.5h-.8v-1.1h19v1.1h-.8c-1.9,0-3.2.6-4.1,1.8s-1.3,3-1.3,5.5v23.4c0,2.5.4,4.3,1.3,5.5s2.3,1.8,4.1,1.8h.8v1.1h-19v-1.1h.1Z"/>
    <path class="st0" d="M309.1,152h.8v13.8h-.8c-.9-3.3-1.9-5.9-3.1-7.8-.8-1.3-1.9-2.5-3.1-3.4s-2.7-1.8-4.2-2.3-3.1-.9-4.7-.9-2.3.2-3.2.7-1.7,1.1-2.4,2c-.5.6-.8,1.3-1.1,2.1s-.4,1.5-.4,2.2c0,1.3.4,2.5,1.2,3.5.4.5.9.9,1.5,1.4s1.5.9,2.6,1.3,2.5.9,4.4,1.6c.5.2.9.3,1.1.4l1.1.3,1.7.6c2.8,1,4.9,1.8,6.2,2.6s2.4,1.7,3.3,3c.7.9,1.3,2,1.7,3.2s.6,2.5.6,3.9-.2,2.8-.7,4.2-1.1,2.6-1.9,3.7c-1.1,1.5-2.4,2.6-3.9,3.3s-3.3,1.1-5.3,1.1-2.7-.2-3.9-.6-2.7-1.1-4.5-2.1c-1.2-.6-2-1-2.6-1.2s-1.2-.3-1.7-.3c-1,0-1.9.4-2.6,1.1s-1.2,1.7-1.4,3.1h-.8v-18.6h.8c.3,3.3,1.3,6.3,3,9,1,1.6,2.3,3,3.9,4.4s3.3,2.4,5,3.2,3.4,1.1,5,1.1,2.7-.3,3.8-.9,2.1-1.5,2.7-2.6,1-2.3,1-3.7-.4-2.8-1.3-3.9c-.4-.5-.9-1-1.6-1.4s-1.5-.9-2.5-1.4-2.4-1-4.2-1.6l-2.2-.8c-3.4-1.2-5.7-2.1-7-2.8-1.5-.7-2.6-1.4-3.4-2.1s-1.5-1.6-2.1-2.7c-.9-1.5-1.3-3.2-1.3-5.1s.5-4.2,1.5-6,2.4-3.2,4.2-4.2c1.8-1,3.8-1.5,5.9-1.5,3.3,0,6.7,1.2,10.2,3.7,1.2.8,2.1,1.2,2.5,1.2,1.1,0,1.9-1.1,2.4-3.3h0l-.2-.5Z"/>
    <path class="st0" d="M315.2,151.2h32v15.6h-.6c-.6-2.7-1.1-4.8-1.6-6.1s-1.1-2.6-1.8-3.8c-.9-1.4-1.9-2.5-2.9-3.1-1.8-1-3.9-1.5-6.4-1.5h-5.9v19.1h1.6c2.4,0,4.3-1.4,5.6-4.1.7-1.4,1.3-3.1,1.6-5,.2-.8.3-2,.5-3.7h.8v26.3h-.8c-.2-1.4-.4-2.8-.6-4s-.5-2.3-.8-3.1-.7-1.6-1.1-2.4c-1.3-2.1-3.1-3.2-5.5-3.2h-1.3v18h5c1.5,0,2.8-.1,4-.4s2.2-.7,3.2-1.3,1.8-1.4,2.6-2.3c1.4-1.6,2.5-3.6,3.3-6,.4-1.4.9-3.2,1.4-5.5h.8v16.5h-32.8v-1.1h.8c3.7,0,5.5-2.5,5.5-7.4v-23.4c0-2.5-.4-4.3-1.3-5.5s-2.3-1.8-4.1-1.8h-.8v-1.1h0l-.4.3Z"/>
  </g>
  <polygon class="st1" points="277.1 83.2 227.2 89.3 268.7 117.4 221.2 101.4 246.3 144.7 210.4 109.6 214.2 159.6 197.2 112.5 178.8 159.1 184 109.3 147.2 143.4 173.6 100.7 125.5 115.5 167.8 88.5 118.2 81.1 168 75 126.5 46.8 174.1 62.9 149 19.6 184.8 54.6 181 4.7 198.1 51.8 216.4 5.2 211.2 55 248.1 20.9 221.7 63.5 269.7 48.7 227.4 75.8 277.1 83.2"/>
  <rect y="194.3" width="348" height="2.3" rx="1.1" ry="1.1"/>
  <rect class="st1" x="18" y="202.3" width="308" height="4.2" rx="1.5" ry="1.5"/>
  <rect x="34" y="215.2" width="267" height="2.3" rx="1" ry="1"/>
  <rect class="st1" x="51" y="222.8" width="233" height="4.6" rx="1.3" ry="1.3"/>
  <rect x="71" y="237.1" width="201" height="2.3" rx=".9" ry=".9"/>
  <rect class="st1" x="94" y="246.2" width="158" height="3.8" rx="1" ry="1"/>
  <rect x="113" y="261" width="122" height="2" rx=".6" ry=".6"/>
</svg>